<svg width="389" height="239" viewBox="0 0 389 239" fill="none" xmlns="http://www.w3.org/2000/svg">
<rect width="389" height="239" fill="#8760B6"/>
<path d="M31.6539 194.636H33.4408L37.6425 204.899H37.7874L41.9891 194.636H43.7761V207H42.3755V197.607H42.2548L38.3911 207H37.0388L33.1752 197.607H33.0545V207H31.6539V194.636ZM46.7779 207V194.636H48.2751V205.672H54.0222V207H46.7779Z" fill="white"/>
<path d="M263.072 195.964V194.636H272.345V195.964H268.457V207H266.96V195.964H263.072ZM274.655 207V194.636H278.833C279.803 194.636 280.596 194.811 281.211 195.162C281.831 195.508 282.29 195.977 282.588 196.568C282.886 197.16 283.035 197.82 283.035 198.548C283.035 199.277 282.886 199.939 282.588 200.534C282.294 201.13 281.839 201.605 281.224 201.959C280.608 202.309 279.819 202.484 278.857 202.484H275.863V201.156H278.809C279.473 201.156 280.006 201.042 280.409 200.812C280.811 200.583 281.103 200.273 281.284 199.882C281.469 199.488 281.562 199.043 281.562 198.548C281.562 198.053 281.469 197.611 281.284 197.22C281.103 196.83 280.809 196.524 280.403 196.303C279.996 196.077 279.457 195.964 278.785 195.964H276.153V207H274.655ZM295.25 194.636V207H293.801L287.064 197.293H286.944V207H285.446V194.636H286.895L293.657 204.368H293.777V194.636H295.25Z" fill="white"/>
<path d="M22.6539 40V27.6364H30.0673V28.9645H24.1511V33.142H29.5119V34.4702H24.1511V40H22.6539ZM32.6314 40V27.6364H34.1286V38.6719H39.8758V40H32.6314ZM42.1939 40V27.6364H49.6556V28.9645H43.6911V33.142H49.2692V34.4702H43.6911V38.6719H49.7522V40H42.1939ZM53.0785 27.6364L56.266 32.7798H56.3626L59.5501 27.6364H61.3129L57.4251 33.8182L61.3129 40H59.5501L56.3626 34.9531H56.266L53.0785 40H51.3157L55.3001 33.8182L51.3157 27.6364H53.0785ZM64.7585 27.6364V40H63.2613V27.6364H64.7585ZM67.7603 40V27.6364H72.0828C72.9441 27.6364 73.6544 27.7853 74.2138 28.0831C74.7732 28.3769 75.1898 28.7733 75.4635 29.2724C75.7371 29.7674 75.874 30.3168 75.874 30.9205C75.874 31.4517 75.7794 31.8904 75.5902 32.2365C75.4051 32.5826 75.1596 32.8563 74.8537 33.0575C74.5519 33.2588 74.2239 33.4077 73.8697 33.5043V33.625C74.248 33.6491 74.6284 33.782 75.0107 34.0234C75.393 34.2649 75.713 34.611 75.9706 35.0618C76.2281 35.5125 76.3569 36.0639 76.3569 36.7159C76.3569 37.3357 76.2161 37.8931 75.9343 38.3881C75.6526 38.8832 75.2079 39.2756 74.6002 39.5653C73.9925 39.8551 73.2016 40 72.2277 40H67.7603ZM69.2575 38.6719H72.2277C73.2057 38.6719 73.8999 38.4827 74.3104 38.1044C74.7249 37.7221 74.9322 37.2592 74.9322 36.7159C74.9322 36.2973 74.8256 35.911 74.6123 35.5568C74.399 35.1986 74.0951 34.9129 73.7007 34.6996C73.3063 34.4822 72.8394 34.3736 72.3001 34.3736H69.2575V38.6719ZM69.2575 33.0696H72.0345C72.4852 33.0696 72.8917 32.9811 73.254 32.804C73.6202 32.6269 73.91 32.3774 74.1233 32.0554C74.3406 31.7334 74.4493 31.3551 74.4493 30.9205C74.4493 30.3771 74.2601 29.9163 73.8818 29.538C73.5035 29.1557 72.9038 28.9645 72.0828 28.9645H69.2575V33.0696ZM78.817 40V27.6364H80.3141V38.6719H86.0613V40H78.817ZM88.3795 40V27.6364H95.8411V28.9645H89.8766V33.142H95.4548V34.4702H89.8766V38.6719H95.9377V40H88.3795ZM110.082 30.7273C110.01 30.1155 109.716 29.6406 109.201 29.3026C108.686 28.9645 108.054 28.7955 107.305 28.7955C106.758 28.7955 106.279 28.884 105.868 29.0611C105.462 29.2382 105.144 29.4817 104.915 29.7915C104.689 30.1014 104.577 30.4536 104.577 30.848C104.577 31.178 104.655 31.4618 104.812 31.6992C104.973 31.9326 105.178 32.1278 105.428 32.2848C105.677 32.4377 105.939 32.5645 106.213 32.6651C106.486 32.7617 106.738 32.8402 106.967 32.9006L108.223 33.2386C108.545 33.3232 108.903 33.4399 109.297 33.5888C109.696 33.7377 110.076 33.9409 110.438 34.1985C110.805 34.4521 111.107 34.7781 111.344 35.1765C111.581 35.5749 111.7 36.0639 111.7 36.6435C111.7 37.3116 111.525 37.9152 111.175 38.4545C110.829 38.9938 110.322 39.4225 109.654 39.7404C108.99 40.0584 108.183 40.2173 107.233 40.2173C106.347 40.2173 105.581 40.0745 104.933 39.7887C104.289 39.503 103.782 39.1045 103.411 38.5934C103.045 38.0823 102.838 37.4886 102.79 36.8125H104.335C104.375 37.2794 104.532 37.6657 104.806 37.9716C105.084 38.2734 105.434 38.4988 105.856 38.6477C106.283 38.7926 106.742 38.8651 107.233 38.8651C107.804 38.8651 108.317 38.7725 108.772 38.5874C109.227 38.3982 109.587 38.1366 109.853 37.8026C110.118 37.4645 110.251 37.0701 110.251 36.6193C110.251 36.2088 110.137 35.8748 109.907 35.6172C109.678 35.3596 109.376 35.1503 109.002 34.9893C108.627 34.8284 108.223 34.6875 107.788 34.5668L106.267 34.1321C105.301 33.8544 104.536 33.458 103.973 32.9428C103.409 32.4277 103.128 31.7536 103.128 30.9205C103.128 30.2282 103.315 29.6245 103.689 29.1094C104.067 28.5902 104.575 28.1877 105.21 27.902C105.85 27.6122 106.565 27.4673 107.354 27.4673C108.15 27.4673 108.859 27.6102 109.479 27.896C110.098 28.1777 110.589 28.564 110.952 29.055C111.318 29.546 111.511 30.1035 111.531 30.7273H110.082ZM113.099 27.6364H114.814L118.243 33.4077H118.388L121.817 27.6364H123.531L119.064 34.9048V40H117.567V34.9048L113.099 27.6364ZM132.229 30.7273C132.156 30.1155 131.862 29.6406 131.347 29.3026C130.832 28.9645 130.2 28.7955 129.452 28.7955C128.904 28.7955 128.425 28.884 128.015 29.0611C127.608 29.2382 127.291 29.4817 127.061 29.7915C126.836 30.1014 126.723 30.4536 126.723 30.848C126.723 31.178 126.802 31.4618 126.958 31.6992C127.119 31.9326 127.325 32.1278 127.574 32.2848C127.824 32.4377 128.085 32.5645 128.359 32.6651C128.633 32.7617 128.884 32.8402 129.114 32.9006L130.369 33.2386C130.691 33.3232 131.05 33.4399 131.444 33.5888C131.842 33.7377 132.223 33.9409 132.585 34.1985C132.951 34.4521 133.253 34.7781 133.49 35.1765C133.728 35.5749 133.847 36.0639 133.847 36.6435C133.847 37.3116 133.672 37.9152 133.321 38.4545C132.975 38.9938 132.468 39.4225 131.8 39.7404C131.136 40.0584 130.329 40.2173 129.379 40.2173C128.494 40.2173 127.727 40.0745 127.079 39.7887C126.435 39.503 125.928 39.1045 125.558 38.5934C125.192 38.0823 124.984 37.4886 124.936 36.8125H126.482C126.522 37.2794 126.679 37.6657 126.952 37.9716C127.23 38.2734 127.58 38.4988 128.003 38.6477C128.429 38.7926 128.888 38.8651 129.379 38.8651C129.951 38.8651 130.464 38.7725 130.919 38.5874C131.374 38.3982 131.734 38.1366 131.999 37.8026C132.265 37.4645 132.398 37.0701 132.398 36.6193C132.398 36.2088 132.283 35.8748 132.054 35.6172C131.824 35.3596 131.522 35.1503 131.148 34.9893C130.774 34.8284 130.369 34.6875 129.935 34.5668L128.413 34.1321C127.447 33.8544 126.683 33.458 126.119 32.9428C125.556 32.4277 125.274 31.7536 125.274 30.9205C125.274 30.2282 125.461 29.6245 125.836 29.1094C126.214 28.5902 126.721 28.1877 127.357 27.902C127.997 27.6122 128.711 27.4673 129.5 27.4673C130.297 27.4673 131.005 27.6102 131.625 27.896C132.245 28.1777 132.736 28.564 133.098 29.055C133.464 29.546 133.657 30.1035 133.678 30.7273H132.229ZM135.632 28.9645V27.6364H144.905V28.9645H141.017V40H139.52V28.9645H135.632ZM147.215 40V27.6364H154.677V28.9645H148.713V33.142H154.291V34.4702H148.713V38.6719H154.774V40H147.215ZM157.376 27.6364H159.163L163.364 37.8991H163.509L167.711 27.6364H169.498V40H168.097V30.6065H167.976L164.113 40H162.761L158.897 30.6065H158.776V40H157.376V27.6364ZM179.261 30.7273C179.189 30.1155 178.895 29.6406 178.38 29.3026C177.864 28.9645 177.233 28.7955 176.484 28.7955C175.937 28.7955 175.458 28.884 175.047 29.0611C174.641 29.2382 174.323 29.4817 174.093 29.7915C173.868 30.1014 173.755 30.4536 173.755 30.848C173.755 31.178 173.834 31.4618 173.991 31.6992C174.152 31.9326 174.357 32.1278 174.606 32.2848C174.856 32.4377 175.118 32.5645 175.391 32.6651C175.665 32.7617 175.917 32.8402 176.146 32.9006L177.402 33.2386C177.724 33.3232 178.082 33.4399 178.476 33.5888C178.875 33.7377 179.255 33.9409 179.617 34.1985C179.983 34.4521 180.285 34.7781 180.523 35.1765C180.76 35.5749 180.879 36.0639 180.879 36.6435C180.879 37.3116 180.704 37.9152 180.354 38.4545C180.008 38.9938 179.5 39.4225 178.832 39.7404C178.168 40.0584 177.361 40.2173 176.412 40.2173C175.526 40.2173 174.759 40.0745 174.111 39.7887C173.468 39.503 172.96 39.1045 172.59 38.5934C172.224 38.0823 172.017 37.4886 171.968 36.8125H173.514C173.554 37.2794 173.711 37.6657 173.985 37.9716C174.262 38.2734 174.613 38.4988 175.035 38.6477C175.462 38.7926 175.921 38.8651 176.412 38.8651C176.983 38.8651 177.496 38.7725 177.951 38.5874C178.406 38.3982 178.766 38.1366 179.032 37.8026C179.297 37.4645 179.43 37.0701 179.43 36.6193C179.43 36.2088 179.315 35.8748 179.086 35.6172C178.856 35.3596 178.555 35.1503 178.18 34.9893C177.806 34.8284 177.402 34.6875 176.967 34.5668L175.446 34.1321C174.48 33.8544 173.715 33.458 173.152 32.9428C172.588 32.4277 172.306 31.7536 172.306 30.9205C172.306 30.2282 172.494 29.6245 172.868 29.1094C173.246 28.5902 173.753 28.1877 174.389 27.902C175.029 27.6122 175.743 27.4673 176.532 27.4673C177.329 27.4673 178.037 27.6102 178.657 27.896C179.277 28.1777 179.768 28.564 180.13 29.055C180.497 29.546 180.69 30.1035 180.71 30.7273H179.261Z" fill="white"/>
</svg>
