<svg width="390" height="225" viewBox="0 0 390 225" fill="none" xmlns="http://www.w3.org/2000/svg">
<rect width="394" height="225" fill="#E1C9FF"/>
<path d="M31.9102 27V14.6364H33.4074V20.142H39.9997V14.6364H41.4969V27H39.9997V21.4702H33.4074V27H31.9102ZM44.4942 27V14.6364H45.9914V20.142H52.5837V14.6364H54.0809V27H52.5837V21.4702H45.9914V27H44.4942ZM61.8595 27V14.6364H66.1819C67.0432 14.6364 67.7535 14.7853 68.3129 15.0831C68.8724 15.3769 69.2889 15.7733 69.5626 16.2724C69.8363 16.7674 69.9731 17.3168 69.9731 17.9205C69.9731 18.4517 69.8785 18.8904 69.6894 19.2365C69.5042 19.5826 69.2587 19.8563 68.9529 20.0575C68.651 20.2588 68.323 20.4077 67.9688 20.5043V20.625C68.3472 20.6491 68.7275 20.782 69.1098 21.0234C69.4922 21.2649 69.8121 21.611 70.0697 22.0618C70.3273 22.5125 70.4561 23.0639 70.4561 23.7159C70.4561 24.3357 70.3152 24.8931 70.0335 25.3881C69.7517 25.8832 69.307 26.2756 68.6993 26.5653C68.0916 26.8551 67.3008 27 66.3268 27H61.8595ZM63.3566 25.6719H66.3268C67.3048 25.6719 67.999 25.4827 68.4095 25.1044C68.8241 24.7221 69.0313 24.2592 69.0313 23.7159C69.0313 23.2973 68.9247 22.911 68.7114 22.5568C68.4981 22.1986 68.1942 21.9129 67.7998 21.6996C67.4054 21.4822 66.9385 21.3736 66.3992 21.3736H63.3566V25.6719ZM63.3566 20.0696H66.1336C66.5844 20.0696 66.9909 19.9811 67.3531 19.804C67.7193 19.6269 68.0091 19.3774 68.2224 19.0554C68.4397 18.7334 68.5484 18.3551 68.5484 17.9205C68.5484 17.3771 68.3592 16.9163 67.9809 16.538C67.6026 16.1557 67.0029 15.9645 66.1819 15.9645H63.3566V20.0696ZM82.865 18.5H81.3678C81.2793 18.0694 81.1243 17.6911 80.903 17.3651C80.6856 17.0391 80.42 16.7654 80.1061 16.544C79.7962 16.3187 79.4521 16.1496 79.0738 16.0369C78.6955 15.9242 78.301 15.8679 77.8905 15.8679C77.142 15.8679 76.4638 16.0571 75.8561 16.4354C75.2524 16.8137 74.7715 17.3711 74.4133 18.1076C74.0591 18.8441 73.882 19.7476 73.882 20.8182C73.882 21.8887 74.0591 22.7923 74.4133 23.5288C74.7715 24.2653 75.2524 24.8227 75.8561 25.201C76.4638 25.5793 77.142 25.7685 77.8905 25.7685C78.301 25.7685 78.6955 25.7121 79.0738 25.5994C79.4521 25.4867 79.7962 25.3197 80.1061 25.0984C80.42 24.873 80.6856 24.5973 80.903 24.2713C81.1243 23.9413 81.2793 23.563 81.3678 23.1364H82.865C82.7523 23.7682 82.547 24.3337 82.2492 24.8327C81.9514 25.3318 81.5811 25.7564 81.1384 26.1065C80.6957 26.4527 80.1987 26.7163 79.6473 26.8974C79.0999 27.0785 78.5144 27.169 77.8905 27.169C76.8361 27.169 75.8983 26.9115 75.0773 26.3963C74.2563 25.8812 73.6104 25.1487 73.1395 24.1989C72.6686 23.2491 72.4331 22.1222 72.4331 20.8182C72.4331 19.5142 72.6686 18.3873 73.1395 17.4375C73.6104 16.4877 74.2563 15.7552 75.0773 15.2401C75.8983 14.7249 76.8361 14.4673 77.8905 14.4673C78.5144 14.4673 79.0999 14.5579 79.6473 14.739C80.1987 14.9201 80.6957 15.1857 81.1384 15.5359C81.5811 15.882 81.9514 16.3046 82.2492 16.8036C82.547 17.2987 82.7523 17.8641 82.865 18.5ZM95.0882 14.6364V27H93.6394L86.9022 17.2926H86.7814V27H85.2843V14.6364H86.7331L93.4945 24.3679H93.6152V14.6364H95.0882Z" fill="white"/>
<path d="M264.743 27L261.362 14.6364H262.884L265.467 24.706H265.588L268.22 14.6364H269.911L272.543 24.706H272.663L275.247 14.6364H276.768L273.388 27H271.842L269.114 17.1477H269.017L266.288 27H264.743ZM280.88 27L277.499 14.6364H279.02L281.604 24.706H281.725L284.357 14.6364H286.047L288.679 24.706H288.8L291.384 14.6364H292.905L289.525 27H287.979L285.25 17.1477H285.154L282.425 27H280.88ZM297.016 27L293.636 14.6364H295.157L297.741 24.706H297.862L300.494 14.6364H302.184L304.816 24.706H304.937L307.521 14.6364H309.042L305.661 27H304.116L301.387 17.1477H301.29L298.562 27H297.016ZM310.109 27.0966C309.811 27.0966 309.556 26.9899 309.342 26.7766C309.129 26.5633 309.022 26.3078 309.022 26.0099C309.022 25.7121 309.129 25.4566 309.342 25.2433C309.556 25.0299 309.811 24.9233 310.109 24.9233C310.407 24.9233 310.662 25.0299 310.876 25.2433C311.089 25.4566 311.196 25.7121 311.196 26.0099C311.196 26.2071 311.145 26.3883 311.045 26.5533C310.948 26.7183 310.817 26.8511 310.652 26.9517C310.491 27.0483 310.31 27.0966 310.109 27.0966ZM262.497 48V35.6364H269.911V36.9645H263.994V41.142H269.355V42.4702H263.994V48H262.497ZM272.475 48V35.6364H273.972V46.6719H279.719V48H272.475ZM282.037 48V35.6364H289.499V36.9645H283.534V41.142H289.112V42.4702H283.534V46.6719H289.595V48H282.037ZM292.922 35.6364L296.109 40.7798H296.206L299.393 35.6364H301.156L297.268 41.8182L301.156 48H299.393L296.206 42.9531H296.109L292.922 48H291.159L295.143 41.8182L291.159 35.6364H292.922ZM304.602 35.6364V48H303.105V35.6364H304.602ZM307.604 48V35.6364H311.926C312.787 35.6364 313.498 35.7853 314.057 36.0831C314.617 36.3769 315.033 36.7733 315.307 37.2724C315.58 37.7674 315.717 38.3168 315.717 38.9205C315.717 39.4517 315.623 39.8904 315.434 40.2365C315.248 40.5826 315.003 40.8563 314.697 41.0575C314.395 41.2588 314.067 41.4077 313.713 41.5043V41.625C314.091 41.6491 314.472 41.782 314.854 42.0234C315.236 42.2649 315.556 42.611 315.814 43.0618C316.071 43.5125 316.2 44.0639 316.2 44.7159C316.2 45.3357 316.059 45.8931 315.778 46.3881C315.496 46.8832 315.051 47.2756 314.443 47.5653C313.836 47.8551 313.045 48 312.071 48H307.604ZM309.101 46.6719H312.071C313.049 46.6719 313.743 46.4827 314.154 46.1044C314.568 45.7221 314.775 45.2592 314.775 44.7159C314.775 44.2973 314.669 43.911 314.456 43.5568C314.242 43.1986 313.938 42.9129 313.544 42.6996C313.15 42.4822 312.683 42.3736 312.143 42.3736H309.101V46.6719ZM309.101 41.0696H311.878C312.329 41.0696 312.735 40.9811 313.097 40.804C313.463 40.6269 313.753 40.3774 313.967 40.0554C314.184 39.7334 314.293 39.3551 314.293 38.9205C314.293 38.3771 314.103 37.9163 313.725 37.538C313.347 37.1557 312.747 36.9645 311.926 36.9645H309.101V41.0696ZM318.66 48V35.6364H320.157V46.6719H325.905V48H318.66ZM328.223 48V35.6364H335.684V36.9645H329.72V41.142H335.298V42.4702H329.72V46.6719H335.781V48H328.223ZM263.004 56.6364L266.675 67.044H266.82L270.49 56.6364H272.06L267.52 69H265.974L261.435 56.6364H263.004ZM275.483 56.6364V69H273.985V56.6364H275.483ZM285.246 59.7273C285.173 59.1155 284.88 58.6406 284.364 58.3026C283.849 57.9645 283.217 57.7955 282.469 57.7955C281.921 57.7955 281.443 57.884 281.032 58.0611C280.626 58.2382 280.308 58.4817 280.078 58.7915C279.853 59.1014 279.74 59.4536 279.74 59.848C279.74 60.178 279.819 60.4618 279.976 60.6992C280.137 60.9326 280.342 61.1278 280.591 61.2848C280.841 61.4377 281.102 61.5645 281.376 61.6651C281.65 61.7617 281.901 61.8402 282.131 61.9006L283.386 62.2386C283.708 62.3232 284.067 62.4399 284.461 62.5888C284.859 62.7377 285.24 62.9409 285.602 63.1985C285.968 63.4521 286.27 63.7781 286.508 64.1765C286.745 64.5749 286.864 65.0639 286.864 65.6435C286.864 66.3116 286.689 66.9152 286.339 67.4545C285.992 67.9938 285.485 68.4225 284.817 68.7404C284.153 69.0584 283.346 69.2173 282.396 69.2173C281.511 69.2173 280.744 69.0745 280.096 68.7887C279.452 68.503 278.945 68.1045 278.575 67.5934C278.209 67.0823 278.002 66.4886 277.953 65.8125H279.499C279.539 66.2794 279.696 66.6657 279.97 66.9716C280.247 67.2734 280.597 67.4988 281.02 67.6477C281.447 67.7926 281.905 67.8651 282.396 67.8651C282.968 67.8651 283.481 67.7725 283.936 67.5874C284.391 67.3982 284.751 67.1366 285.016 66.8026C285.282 66.4645 285.415 66.0701 285.415 65.6193C285.415 65.2088 285.3 64.8748 285.071 64.6172C284.841 64.3596 284.54 64.1503 284.165 63.9893C283.791 63.8284 283.386 63.6875 282.952 63.5668L281.43 63.1321C280.465 62.8544 279.7 62.458 279.136 61.9428C278.573 61.4277 278.291 60.7536 278.291 59.9205C278.291 59.2282 278.478 58.6245 278.853 58.1094C279.231 57.5902 279.738 57.1877 280.374 56.902C281.014 56.6122 281.728 56.4673 282.517 56.4673C283.314 56.4673 284.022 56.6102 284.642 56.896C285.262 57.1777 285.753 57.564 286.115 58.055C286.481 58.546 286.675 59.1035 286.695 59.7273H285.246ZM297.439 56.6364H298.936V64.8224C298.936 65.6676 298.737 66.4222 298.338 67.0863C297.944 67.7463 297.387 68.2675 296.666 68.6499C295.946 69.0282 295.101 69.2173 294.131 69.2173C293.161 69.2173 292.316 69.0282 291.595 68.6499C290.875 68.2675 290.315 67.7463 289.917 67.0863C289.522 66.4222 289.325 65.6676 289.325 64.8224V56.6364H290.822V64.7017C290.822 65.3054 290.955 65.8427 291.221 66.3136C291.487 66.7804 291.865 67.1487 292.356 67.4183C292.851 67.6839 293.442 67.8168 294.131 67.8168C294.819 67.8168 295.411 67.6839 295.906 67.4183C296.401 67.1487 296.779 66.7804 297.04 66.3136C297.306 65.8427 297.439 65.3054 297.439 64.7017V56.6364ZM302.433 69H300.863L305.403 56.6364H306.949L311.488 69H309.919L306.224 58.5923H306.128L302.433 69ZM303.013 64.1705H309.339V65.4986H303.013V64.1705ZM313.414 69V56.6364H314.911V67.6719H320.658V69H313.414ZM269.259 80.7273C269.186 80.1155 268.892 79.6406 268.377 79.3026C267.862 78.9645 267.23 78.7955 266.482 78.7955C265.934 78.7955 265.455 78.884 265.045 79.0611C264.638 79.2382 264.32 79.4817 264.091 79.7915C263.866 80.1014 263.753 80.4536 263.753 80.848C263.753 81.178 263.831 81.4618 263.988 81.6992C264.149 81.9326 264.355 82.1278 264.604 82.2848C264.854 82.4377 265.115 82.5645 265.389 82.6651C265.663 82.7617 265.914 82.8402 266.143 82.9006L267.399 83.2386C267.721 83.3232 268.079 83.4399 268.474 83.5888C268.872 83.7377 269.252 83.9409 269.615 84.1985C269.981 84.4521 270.283 84.7781 270.52 85.1765C270.758 85.5749 270.876 86.0639 270.876 86.6435C270.876 87.3116 270.701 87.9152 270.351 88.4545C270.005 88.9938 269.498 89.4225 268.83 89.7404C268.166 90.0584 267.359 90.2173 266.409 90.2173C265.524 90.2173 264.757 90.0745 264.109 89.7887C263.465 89.503 262.958 89.1045 262.588 88.5934C262.221 88.0823 262.014 87.4886 261.966 86.8125H263.511C263.552 87.2794 263.709 87.6657 263.982 87.9716C264.26 88.2734 264.61 88.4988 265.033 88.6477C265.459 88.7926 265.918 88.8651 266.409 88.8651C266.981 88.8651 267.494 88.7725 267.949 88.5874C268.403 88.3982 268.763 88.1366 269.029 87.8026C269.295 87.4645 269.428 87.0701 269.428 86.6193C269.428 86.2088 269.313 85.8748 269.083 85.6172C268.854 85.3596 268.552 85.1503 268.178 84.9893C267.804 84.8284 267.399 84.6875 266.964 84.5668L265.443 84.1321C264.477 83.8544 263.713 83.458 263.149 82.9428C262.586 82.4277 262.304 81.7536 262.304 80.9205C262.304 80.2282 262.491 79.6245 262.865 79.1094C263.244 78.5902 263.751 78.1877 264.387 77.902C265.027 77.6122 265.741 77.4673 266.53 77.4673C267.327 77.4673 268.035 77.6102 268.655 77.896C269.275 78.1777 269.766 78.564 270.128 79.055C270.494 79.546 270.687 80.1035 270.707 80.7273H269.259ZM272.275 77.6364H273.99L277.419 83.4077H277.564L280.993 77.6364H282.707L278.24 84.9048V90H276.743V84.9048L272.275 77.6364ZM291.405 80.7273C291.333 80.1155 291.039 79.6406 290.524 79.3026C290.008 78.9645 289.377 78.7955 288.628 78.7955C288.081 78.7955 287.602 78.884 287.191 79.0611C286.785 79.2382 286.467 79.4817 286.237 79.7915C286.012 80.1014 285.899 80.4536 285.899 80.848C285.899 81.178 285.978 81.4618 286.135 81.6992C286.296 81.9326 286.501 82.1278 286.751 82.2848C287 82.4377 287.262 82.5645 287.535 82.6651C287.809 82.7617 288.061 82.8402 288.29 82.9006L289.546 83.2386C289.868 83.3232 290.226 83.4399 290.62 83.5888C291.019 83.7377 291.399 83.9409 291.761 84.1985C292.127 84.4521 292.429 84.7781 292.667 85.1765C292.904 85.5749 293.023 86.0639 293.023 86.6435C293.023 87.3116 292.848 87.9152 292.498 88.4545C292.152 88.9938 291.644 89.4225 290.976 89.7404C290.312 90.0584 289.505 90.2173 288.556 90.2173C287.67 90.2173 286.903 90.0745 286.256 89.7887C285.612 89.503 285.104 89.1045 284.734 88.5934C284.368 88.0823 284.161 87.4886 284.112 86.8125H285.658C285.698 87.2794 285.855 87.6657 286.129 87.9716C286.406 88.2734 286.757 88.4988 287.179 88.6477C287.606 88.7926 288.065 88.8651 288.556 88.8651C289.127 88.8651 289.64 88.7725 290.095 88.5874C290.55 88.3982 290.91 88.1366 291.176 87.8026C291.441 87.4645 291.574 87.0701 291.574 86.6193C291.574 86.2088 291.459 85.8748 291.23 85.6172C291.001 85.3596 290.699 85.1503 290.324 84.9893C289.95 84.8284 289.546 84.6875 289.111 84.5668L287.59 84.1321C286.624 83.8544 285.859 83.458 285.296 82.9428C284.732 82.4277 284.45 81.7536 284.45 80.9205C284.45 80.2282 284.638 79.6245 285.012 79.1094C285.39 78.5902 285.897 78.1877 286.533 77.902C287.173 77.6122 287.887 77.4673 288.676 77.4673C289.473 77.4673 290.182 77.6102 290.801 77.896C291.421 78.1777 291.912 78.564 292.274 79.055C292.641 79.546 292.834 80.1035 292.854 80.7273H291.405ZM294.808 78.9645V77.6364H304.081V78.9645H300.193V90H298.696V78.9645H294.808ZM306.392 90V77.6364H313.853V78.9645H307.889V83.142H313.467V84.4702H307.889V88.6719H313.95V90H306.392ZM316.552 77.6364H318.339L322.54 87.8991H322.685L326.887 77.6364H328.674V90H327.273V80.6065H327.153L323.289 90H321.937L318.073 80.6065H317.952V90H316.552V77.6364ZM338.437 80.7273C338.365 80.1155 338.071 79.6406 337.556 79.3026C337.041 78.9645 336.409 78.7955 335.66 78.7955C335.113 78.7955 334.634 78.884 334.223 79.0611C333.817 79.2382 333.499 79.4817 333.27 79.7915C333.044 80.1014 332.932 80.4536 332.932 80.848C332.932 81.178 333.01 81.4618 333.167 81.6992C333.328 81.9326 333.533 82.1278 333.783 82.2848C334.032 82.4377 334.294 82.5645 334.568 82.6651C334.841 82.7617 335.093 82.8402 335.322 82.9006L336.578 83.2386C336.9 83.3232 337.258 83.4399 337.652 83.5888C338.051 83.7377 338.431 83.9409 338.793 84.1985C339.16 84.4521 339.462 84.7781 339.699 85.1765C339.936 85.5749 340.055 86.0639 340.055 86.6435C340.055 87.3116 339.88 87.9152 339.53 88.4545C339.184 88.9938 338.677 89.4225 338.009 89.7404C337.345 90.0584 336.538 90.2173 335.588 90.2173C334.702 90.2173 333.936 90.0745 333.288 89.7887C332.644 89.503 332.137 89.1045 331.766 88.5934C331.4 88.0823 331.193 87.4886 331.145 86.8125H332.69C332.73 87.2794 332.887 87.6657 333.161 87.9716C333.439 88.2734 333.789 88.4988 334.211 88.6477C334.638 88.7926 335.097 88.8651 335.588 88.8651C336.159 88.8651 336.672 88.7725 337.127 88.5874C337.582 88.3982 337.942 88.1366 338.208 87.8026C338.473 87.4645 338.606 87.0701 338.606 86.6193C338.606 86.2088 338.492 85.8748 338.262 85.6172C338.033 85.3596 337.731 85.1503 337.357 84.9893C336.982 84.8284 336.578 84.6875 336.143 84.5668L334.622 84.1321C333.656 83.8544 332.891 83.458 332.328 82.9428C331.764 82.4277 331.483 81.7536 331.483 80.9205C331.483 80.2282 331.67 79.6245 332.044 79.1094C332.422 78.5902 332.93 78.1877 333.565 77.902C334.205 77.6122 334.92 77.4673 335.709 77.4673C336.505 77.4673 337.214 77.6102 337.834 77.896C338.453 78.1777 338.944 78.564 339.307 79.055C339.673 79.546 339.866 80.1035 339.886 80.7273H338.437ZM343.362 90.0966C343.064 90.0966 342.808 89.9899 342.595 89.7766C342.382 89.5633 342.275 89.3078 342.275 89.0099C342.275 88.7121 342.382 88.4566 342.595 88.2433C342.808 88.0299 343.064 87.9233 343.362 87.9233C343.66 87.9233 343.915 88.0299 344.129 88.2433C344.342 88.4566 344.449 88.7121 344.449 89.0099C344.449 89.2071 344.398 89.3883 344.298 89.5533C344.201 89.7183 344.07 89.8511 343.905 89.9517C343.744 90.0483 343.563 90.0966 343.362 90.0966ZM263.994 98.6364V111H262.497V98.6364H263.994ZM276.8 98.6364V111H275.351L268.614 101.293H268.493V111H266.996V98.6364H268.445L275.206 108.368H275.327V98.6364H276.8ZM279.796 111V98.6364H287.209V99.9645H281.293V104.142H286.654V105.47H281.293V111H279.796ZM300.205 104.818C300.205 106.122 299.97 107.249 299.499 108.199C299.028 109.149 298.382 109.881 297.561 110.396C296.74 110.911 295.802 111.169 294.748 111.169C293.694 111.169 292.756 110.911 291.935 110.396C291.114 109.881 290.468 109.149 289.997 108.199C289.526 107.249 289.291 106.122 289.291 104.818C289.291 103.514 289.526 102.387 289.997 101.438C290.468 100.488 291.114 99.7552 291.935 99.2401C292.756 98.7249 293.694 98.4673 294.748 98.4673C295.802 98.4673 296.74 98.7249 297.561 99.2401C298.382 99.7552 299.028 100.488 299.499 101.438C299.97 102.387 300.205 103.514 300.205 104.818ZM298.756 104.818C298.756 103.748 298.577 102.844 298.219 102.108C297.865 101.371 297.384 100.814 296.776 100.435C296.173 100.057 295.497 99.8679 294.748 99.8679C293.999 99.8679 293.321 100.057 292.714 100.435C292.11 100.814 291.629 101.371 291.271 102.108C290.917 102.844 290.739 103.748 290.739 104.818C290.739 105.889 290.917 106.792 291.271 107.529C291.629 108.265 292.11 108.823 292.714 109.201C293.321 109.579 293.999 109.768 294.748 109.768C295.497 109.768 296.173 109.579 296.776 109.201C297.384 108.823 297.865 108.265 298.219 107.529C298.577 106.792 298.756 105.889 298.756 104.818Z" fill="white"/>
</svg>
