<svg width="389" height="380" viewBox="0 0" fill="none" xmlns="http://www.w3.org/2000/svg">
<g clip-path="url(#clip0_114_493)">
<rect width="389" height="195" fill="#8760B6"/>
<rect x="63.3945" y="31.7773" width="262.215" height="131.444" fill="#E1C9FF"/>
<path d="M0.0730541 19.0838C5.06322 19.0838 10.0045 18.5911 14.6148 17.6338C19.2252 16.6765 23.4142 15.2734 26.9428 13.5046C30.4714 11.7357 33.2704 9.63582 35.18 7.32474C37.0897 5.01366 38.0726 2.53665 38.0726 0.0351504L0.0730486 0.0351562L0.0730541 19.0838Z" fill="#492877"/>
<path d="M58.602 0.0358188C58.602 2.53732 59.5849 5.01432 61.4946 7.3254C63.4042 9.63649 66.2033 11.7364 69.7318 13.5052C73.2604 15.274 77.4495 16.6772 82.0598 17.6344C86.6701 18.5917 91.6114 19.0844 96.6016 19.0844C101.592 19.0844 106.533 18.5917 111.143 17.6344C115.754 16.6771 119.943 15.274 123.471 13.5052C127 11.7364 129.799 9.63647 131.709 7.32539C133.618 5.0143 134.601 2.5373 134.601 0.0358004L96.6016 0.0358104L58.602 0.0358188Z" fill="#492877"/>
<path d="M156.571 0.0358188C156.571 2.53732 157.554 5.01432 159.463 7.3254C161.373 9.63649 164.172 11.7364 167.701 13.5052C171.229 15.274 175.418 16.6772 180.029 17.6344C184.639 18.5917 189.58 19.0844 194.57 19.0844C199.56 19.0844 204.502 18.5917 209.112 17.6344C213.722 16.6771 217.911 15.274 221.44 13.5052C224.969 11.7364 227.768 9.63647 229.677 7.32539C231.587 5.0143 232.57 2.5373 232.57 0.0358004L194.57 0.0358104L156.571 0.0358188Z" fill="#492877"/>
<path d="M254.543 0.0358188C254.543 2.53732 255.526 5.01432 257.436 7.3254C259.346 9.63649 262.145 11.7364 265.673 13.5052C269.202 15.274 273.391 16.6772 278.001 17.6344C282.612 18.5917 287.553 19.0844 292.543 19.0844C297.533 19.0844 302.474 18.5917 307.085 17.6344C311.695 16.6771 315.884 15.274 319.413 13.5052C322.941 11.7364 325.74 9.63647 327.65 7.32539C329.56 5.0143 330.543 2.5373 330.543 0.0358004L292.543 0.0358104L254.543 0.0358188Z" fill="#492877"/>
<path d="M389.071 30.6408C384.081 30.6408 379.14 31.1335 374.53 32.0908C369.919 33.0481 365.73 34.4512 362.202 36.2201C358.673 37.9889 355.874 40.0888 353.964 42.3999C352.055 44.711 351.072 47.188 351.072 49.6895C351.072 52.191 352.055 54.668 353.964 56.979C355.874 59.2901 358.673 61.39 362.202 63.1589C365.73 64.9277 369.919 66.3308 374.53 67.2881C379.14 68.2454 384.081 68.7381 389.071 68.7381L389.071 49.6895L389.071 30.6408Z" fill="#492877"/>
<path d="M389.071 78.4865C384.081 78.4865 379.14 78.9793 374.53 79.9365C369.919 80.8938 365.73 82.2969 362.202 84.0658C358.673 85.8346 355.874 87.9345 353.964 90.2456C352.055 92.5567 351.072 95.0337 351.072 97.5352C351.072 100.037 352.055 102.514 353.964 104.825C355.874 107.136 358.673 109.236 362.202 111.005C365.73 112.773 369.919 114.176 374.53 115.134C379.14 116.091 384.081 116.584 389.071 116.584L389.071 97.5352L389.071 78.4865Z" fill="#492877"/>
<path d="M389.071 126.334C384.081 126.334 379.14 126.827 374.53 127.784C369.919 128.741 365.73 130.145 362.202 131.913C358.673 133.682 355.874 135.782 353.964 138.093C352.055 140.404 351.072 142.881 351.072 145.383C351.072 147.884 352.055 150.361 353.964 152.672C355.874 154.983 358.673 157.083 362.202 158.852C365.73 160.621 369.919 162.024 374.53 162.981C379.14 163.939 384.081 164.431 389.071 164.431L389.071 145.383L389.071 126.334Z" fill="#492877"/>
<path d="M330.542 195.036C330.542 192.535 329.56 190.058 327.65 187.747C325.74 185.436 322.941 183.336 319.413 181.567C315.884 179.798 311.695 178.395 307.085 177.438C302.474 176.481 297.533 175.988 292.543 175.988C287.553 175.988 282.611 176.481 278.001 177.438C273.391 178.395 269.202 179.798 265.673 181.567C262.145 183.336 259.346 185.436 257.436 187.747C255.526 190.058 254.543 192.535 254.543 195.036L292.543 195.036L330.542 195.036Z" fill="#492877"/>
<path d="M232.57 195.036C232.57 192.535 231.587 190.058 229.677 187.747C227.768 185.436 224.969 183.336 221.44 181.567C217.911 179.798 213.722 178.395 209.112 177.438C204.502 176.481 199.56 175.988 194.57 175.988C189.58 175.988 184.639 176.481 180.029 177.438C175.418 178.395 171.229 179.798 167.701 181.567C164.172 183.336 161.373 185.436 159.463 187.747C157.554 190.058 156.571 192.535 156.571 195.036L194.57 195.036L232.57 195.036Z" fill="#492877"/>
<path d="M134.601 195.036C134.601 192.535 133.618 190.058 131.709 187.747C129.799 185.436 127 183.336 123.471 181.567C119.943 179.798 115.754 178.395 111.143 177.438C106.533 176.481 101.592 175.988 96.6016 175.988C91.6114 175.988 86.6701 176.481 82.0598 177.438C77.4494 178.395 73.2604 179.798 69.7318 181.567C66.2032 183.336 63.4042 185.436 61.4946 187.747C59.5849 190.058 58.602 192.535 58.602 195.036L96.6016 195.036L134.601 195.036Z" fill="#492877"/>
<path d="M-10.7355 164.431C-5.74537 164.431 -0.804064 163.939 3.80625 162.981C8.41657 162.024 12.6056 160.621 16.1342 158.852C19.6628 157.083 22.4618 154.983 24.3714 152.672C26.2811 150.361 27.264 147.884 27.264 145.383C27.264 142.881 26.2811 140.404 24.3714 138.093C22.4618 135.782 19.6628 133.682 16.1342 131.913C12.6056 130.145 8.41655 128.741 3.80624 127.784C-0.804078 126.827 -5.74538 126.334 -10.7356 126.334L-10.7355 145.383L-10.7355 164.431Z" fill="#492877"/>
<path d="M0.0730541 116.584C5.06322 116.584 10.0045 116.091 14.6148 115.134C19.2252 114.176 23.4142 112.773 26.9428 111.005C30.4714 109.236 33.2704 107.136 35.18 104.825C37.0897 102.514 38.0726 100.037 38.0726 97.5352C38.0726 95.0337 37.0897 92.5566 35.18 90.2456C33.2704 87.9345 30.4714 85.8346 26.9428 84.0658C23.4142 82.2969 19.2251 80.8938 14.6148 79.9365C10.0045 78.9793 5.06321 78.4865 0.0730398 78.4865L0.0730486 97.5352L0.0730541 116.584Z" fill="#492877"/>
<path d="M0.0730541 68.7381C5.06322 68.7381 10.0045 68.2454 14.6148 67.2881C19.2252 66.3308 23.4142 64.9277 26.9428 63.1589C30.4714 61.39 33.2704 59.2901 35.18 56.979C37.0897 54.668 38.0726 52.1909 38.0726 49.6894C38.0726 47.188 37.0897 44.7109 35.18 42.3999C33.2704 40.0888 30.4714 37.9889 26.9428 36.22C23.4142 34.4512 19.2251 33.0481 14.6148 32.0908C10.0045 31.1335 5.06321 30.6408 0.0730398 30.6408L0.0730486 49.6895L0.0730541 68.7381Z" fill="#492877"/>
<path d="M351.071 0.0358072C351.071 2.53731 352.054 5.01431 353.963 7.3254C355.873 9.63648 358.672 11.7364 362.201 13.5052C365.729 15.274 369.918 16.6771 374.529 17.6344C379.139 18.5917 384.08 19.0844 389.07 19.0844L389.07 0.0358044L351.071 0.0358072Z" fill="#492877"/>
<path d="M389.071 175.987C384.081 175.987 379.14 176.479 374.53 177.437C369.919 178.394 365.73 179.797 362.202 181.566C358.673 183.335 355.874 185.434 353.964 187.746C352.055 190.057 351.072 192.534 351.072 195.035L389.071 195.035L389.071 175.987Z" fill="#492877"/>
<path d="M38.0698 195.036C38.0698 192.535 37.087 190.058 35.1773 187.747C33.2676 185.436 30.4686 183.336 26.94 181.567C23.4114 179.798 19.2224 178.395 14.6121 177.438C10.0018 176.481 5.06047 175.988 0.0703008 175.988L0.0703125 195.036L38.0698 195.036Z" fill="#492877"/>
</g>
<g clip-path="url(#clip1_114_493)">
<rect width="129.667" height="185" transform="translate(0 195)" fill="#8760B6"/>
<rect width="25.2933" height="25.2933" transform="matrix(0.573958 0.818885 -0.573958 0.818885 21.2422 195)" fill="#492877"/>
<rect width="25.2933" height="25.2933" transform="matrix(0.573958 0.818885 -0.573958 0.818885 21.2422 266.773)" fill="#492877"/>
<rect width="25.2933" height="25.2933" transform="matrix(0.573958 0.818885 -0.573958 0.818885 21.2422 338.547)" fill="#492877"/>
<rect width="25.2933" height="25.2933" transform="matrix(0.573958 0.818885 -0.573958 0.818885 6.71484 230.801)" fill="#492877"/>
<rect width="25.2933" height="25.2933" transform="matrix(0.573958 0.818885 -0.573958 0.818885 6.83203 302.402)" fill="#492877"/>
<rect width="25.2933" height="25.2933" transform="matrix(0.573958 0.818885 -0.573958 0.818885 79.3516 195)" fill="#492877"/>
<rect width="25.2933" height="25.2933" transform="matrix(0.573958 0.818885 -0.573958 0.818885 79.3516 266.773)" fill="#492877"/>
<rect width="25.2933" height="25.2933" transform="matrix(0.573958 0.818885 -0.573958 0.818885 79.3516 338.547)" fill="#492877"/>
<rect width="25.2933" height="25.2933" transform="matrix(0.573958 0.818885 -0.573958 0.818885 64.8242 230.801)" fill="#492877"/>
<rect width="25.2933" height="25.2933" transform="matrix(0.573958 0.818885 -0.573958 0.818885 64.9023 302.402)" fill="#492877"/>
<rect width="25.2933" height="25.2933" transform="matrix(0.573958 0.818885 -0.573958 0.818885 108.406 195)" fill="#492877"/>
<rect width="25.2933" height="25.2933" transform="matrix(0.573958 0.818885 -0.573958 0.818885 108.406 266.773)" fill="#492877"/>
<rect width="25.2933" height="25.2933" transform="matrix(0.573958 0.818885 -0.573958 0.818885 108.406 338.547)" fill="#492877"/>
<rect width="25.2933" height="25.2933" transform="matrix(0.573958 0.818885 -0.573958 0.818885 93.8789 230.801)" fill="#492877"/>
<rect width="25.2933" height="25.2933" transform="matrix(0.573958 0.818885 -0.573958 0.818885 93.9375 302.402)" fill="#492877"/>
<rect width="25.2933" height="25.2933" transform="matrix(0.573958 0.818885 -0.573958 0.818885 122.934 230.801)" fill="#492877"/>
<rect width="25.2933" height="25.2933" transform="matrix(0.573958 0.818885 -0.573958 0.818885 122.973 302.402)" fill="#492877"/>
<rect width="25.2933" height="25.2933" transform="matrix(0.573958 0.818885 -0.573958 0.818885 50.2969 195)" fill="#492877"/>
<rect width="25.2933" height="25.2933" transform="matrix(0.573958 0.818885 -0.573958 0.818885 50.2969 266.773)" fill="#492877"/>
<rect width="25.2933" height="25.2933" transform="matrix(0.573958 0.818885 -0.573958 0.818885 50.2969 338.547)" fill="#492877"/>
<rect width="25.2933" height="25.2933" transform="matrix(0.573958 0.818885 -0.573958 0.818885 35.7695 230.801)" fill="#492877"/>
<rect width="25.2933" height="25.2933" transform="matrix(0.573958 0.818885 -0.573958 0.818885 35.8672 302.402)" fill="#492877"/>
<ellipse cx="65.5537" cy="287.5" rx="29.6553" ry="42.3102" fill="#E1C9FF"/>
</g>
<g clip-path="url(#clip2_114_493)">
<rect width="129.667" height="185" transform="translate(129.668 195)" fill="#492877"/>
<ellipse cx="129.307" cy="221.38" rx="12.0062" ry="17.1296" fill="#E1C9FF"/>
<ellipse cx="129.666" cy="265.059" rx="12.0062" ry="17.1296" fill="#E1C9FF"/>
<ellipse cx="129.666" cy="308.741" rx="12.0062" ry="17.1296" fill="#E1C9FF"/>
<ellipse cx="129.666" cy="352.421" rx="12.0062" ry="17.1296" fill="#E1C9FF"/>
<ellipse cx="163.045" cy="221.38" rx="12.0062" ry="17.1296" fill="#E1C9FF"/>
<ellipse cx="163.405" cy="265.059" rx="12.0062" ry="17.1296" fill="#E1C9FF"/>
<ellipse cx="163.405" cy="308.741" rx="12.0062" ry="17.1296" fill="#E1C9FF"/>
<ellipse cx="163.405" cy="352.421" rx="12.0062" ry="17.1296" fill="#E1C9FF"/>
<ellipse cx="193.78" cy="221.38" rx="12.0062" ry="17.1296" fill="#E1C9FF"/>
<ellipse cx="193.78" cy="265.059" rx="12.0062" ry="17.1296" fill="#E1C9FF"/>
<ellipse cx="194.143" cy="308.741" rx="12.0062" ry="17.1296" fill="#E1C9FF"/>
<ellipse cx="194.143" cy="352.421" rx="12.0062" ry="17.1296" fill="#E1C9FF"/>
<ellipse cx="226.319" cy="221.38" rx="12.0062" ry="17.1296" fill="#E1C9FF"/>
<ellipse cx="226.319" cy="265.059" rx="12.0062" ry="17.1296" fill="#E1C9FF"/>
<ellipse cx="227.877" cy="308.741" rx="12.0062" ry="17.1296" fill="#E1C9FF"/>
<ellipse cx="227.877" cy="352.421" rx="12.0062" ry="17.1296" fill="#E1C9FF"/>
<ellipse cx="258.975" cy="221.38" rx="12.0062" ry="17.1296" fill="#E1C9FF"/>
<ellipse cx="258.975" cy="265.059" rx="12.0062" ry="17.1296" fill="#E1C9FF"/>
<ellipse cx="259.334" cy="308.741" rx="12.0062" ry="17.1296" fill="#E1C9FF"/>
<ellipse cx="259.334" cy="352.421" rx="12.0062" ry="17.1296" fill="#E1C9FF"/>
<rect width="9.31859" height="9.31859" transform="matrix(0.573957 0.818885 -0.573957 0.818885 146.062 279.791)" fill="#8760B6"/>
<rect width="9.31859" height="9.31859" transform="matrix(0.573957 0.818885 -0.573957 0.818885 145.461 235.598)" fill="#8760B6"/>
<rect width="9.31859" height="9.31859" transform="matrix(0.573957 0.818885 -0.573957 0.818885 145.102 199.797)" fill="#8760B6"/>
<rect width="9.31859" height="9.31859" transform="matrix(0.573957 0.818885 -0.573957 0.818885 147.023 324.5)" fill="#8760B6"/>
<rect width="9.31859" height="9.31859" transform="matrix(0.573957 0.818885 -0.573957 0.818885 145.461 362.186)" fill="#8760B6"/>
<rect width="9.31859" height="9.31859" transform="matrix(0.573957 0.818885 -0.573957 0.818885 180.762 279.791)" fill="#8760B6"/>
<rect width="9.31859" height="9.31859" transform="matrix(0.573957 0.818885 -0.573957 0.818885 180.16 235.598)" fill="#8760B6"/>
<rect width="9.31859" height="9.31859" transform="matrix(0.573957 0.818885 -0.573957 0.818885 179.801 199.797)" fill="#8760B6"/>
<rect width="9.31859" height="9.31859" transform="matrix(0.573957 0.818885 -0.573957 0.818885 181.719 324.5)" fill="#8760B6"/>
<rect width="9.31859" height="9.31859" transform="matrix(0.573957 0.818885 -0.573957 0.818885 180.16 362.186)" fill="#8760B6"/>
<rect width="9.31859" height="9.31859" transform="matrix(0.573957 0.818885 -0.573957 0.818885 211.496 279.277)" fill="#8760B6"/>
<rect width="9.31859" height="9.31859" transform="matrix(0.573957 0.818885 -0.573957 0.818885 210.895 235.084)" fill="#8760B6"/>
<rect width="9.31859" height="9.31859" transform="matrix(0.573957 0.818885 -0.573957 0.818885 210.535 199.283)" fill="#8760B6"/>
<rect width="9.31859" height="9.31859" transform="matrix(0.573957 0.818885 -0.573957 0.818885 212.457 323.986)" fill="#8760B6"/>
<rect width="9.31859" height="9.31859" transform="matrix(0.573957 0.818885 -0.573957 0.818885 210.895 361.672)" fill="#8760B6"/>
<rect width="9.31859" height="9.31859" transform="matrix(0.573957 0.818885 -0.573957 0.818885 244.031 279.791)" fill="#8760B6"/>
<rect width="9.31859" height="9.31859" transform="matrix(0.573957 0.818885 -0.573957 0.818885 243.434 235.598)" fill="#8760B6"/>
<rect width="9.31859" height="9.31859" transform="matrix(0.573957 0.818885 -0.573957 0.818885 243.07 199.797)" fill="#8760B6"/>
<rect width="9.31859" height="9.31859" transform="matrix(0.573957 0.818885 -0.573957 0.818885 244.992 324.5)" fill="#8760B6"/>
<rect width="9.31859" height="9.31859" transform="matrix(0.573957 0.818885 -0.573957 0.818885 243.434 362.186)" fill="#8760B6"/>
</g>
<g clip-path="url(#clip3_114_493)">
<rect width="129.667" height="185" transform="translate(259.332 195)" fill="#8760B6"/>
<rect width="25.2933" height="25.2933" transform="matrix(0.573957 0.818885 -0.573957 0.818885 280.574 195)" fill="#492877"/>
<rect width="25.2933" height="25.2933" transform="matrix(0.573957 0.818885 -0.573957 0.818885 280.574 266.773)" fill="#492877"/>
<rect width="25.2933" height="25.2933" transform="matrix(0.573957 0.818885 -0.573957 0.818885 280.574 338.547)" fill="#492877"/>
<rect width="25.2933" height="25.2933" transform="matrix(0.573957 0.818885 -0.573957 0.818885 266.047 230.801)" fill="#492877"/>
<rect width="25.2933" height="25.2933" transform="matrix(0.573957 0.818885 -0.573957 0.818885 266.164 302.402)" fill="#492877"/>
<rect width="25.2933" height="25.2933" transform="matrix(0.573957 0.818885 -0.573957 0.818885 338.684 195)" fill="#492877"/>
<rect width="25.2933" height="25.2933" transform="matrix(0.573957 0.818885 -0.573957 0.818885 338.684 266.773)" fill="#492877"/>
<rect width="25.2933" height="25.2933" transform="matrix(0.573957 0.818885 -0.573957 0.818885 338.684 338.547)" fill="#492877"/>
<rect width="25.2933" height="25.2933" transform="matrix(0.573957 0.818885 -0.573957 0.818885 324.156 230.801)" fill="#492877"/>
<rect width="25.2933" height="25.2933" transform="matrix(0.573957 0.818885 -0.573957 0.818885 324.234 302.402)" fill="#492877"/>
<rect width="25.2933" height="25.2933" transform="matrix(0.573957 0.818885 -0.573957 0.818885 367.738 195)" fill="#492877"/>
<rect width="25.2933" height="25.2933" transform="matrix(0.573957 0.818885 -0.573957 0.818885 367.738 266.773)" fill="#492877"/>
<rect width="25.2933" height="25.2933" transform="matrix(0.573957 0.818885 -0.573957 0.818885 367.738 338.547)" fill="#492877"/>
<rect width="25.2933" height="25.2933" transform="matrix(0.573957 0.818885 -0.573957 0.818885 353.211 230.801)" fill="#492877"/>
<rect width="25.2933" height="25.2933" transform="matrix(0.573957 0.818885 -0.573957 0.818885 353.27 302.402)" fill="#492877"/>
<rect width="25.2933" height="25.2933" transform="matrix(0.573957 0.818885 -0.573957 0.818885 382.266 230.801)" fill="#492877"/>
<rect width="25.2933" height="25.2933" transform="matrix(0.573957 0.818885 -0.573957 0.818885 382.305 302.402)" fill="#492877"/>
<rect width="25.2933" height="25.2933" transform="matrix(0.573957 0.818885 -0.573957 0.818885 309.629 195)" fill="#492877"/>
<rect width="25.2933" height="25.2933" transform="matrix(0.573957 0.818885 -0.573957 0.818885 309.629 266.773)" fill="#492877"/>
<rect width="25.2933" height="25.2933" transform="matrix(0.573957 0.818885 -0.573957 0.818885 309.629 338.547)" fill="#492877"/>
<rect width="25.2933" height="25.2933" transform="matrix(0.573957 0.818885 -0.573957 0.818885 295.102 230.801)" fill="#492877"/>
<rect width="25.2933" height="25.2933" transform="matrix(0.573957 0.818885 -0.573957 0.818885 295.199 302.402)" fill="#492877"/>
<ellipse cx="324.886" cy="287.5" rx="29.6552" ry="42.3102" fill="#E1C9FF"/>
</g>
<defs>
<clipPath id="clip0_114_493">
<rect width="389" height="195" fill="white"/>
</clipPath>
<clipPath id="clip1_114_493">
<rect width="129.667" height="185" fill="white" transform="translate(0 195)"/>
</clipPath>
<clipPath id="clip2_114_493">
<rect width="129.667" height="185" fill="white" transform="translate(129.668 195)"/>
</clipPath>
<clipPath id="clip3_114_493">
<rect width="129.667" height="185" fill="white" transform="translate(259.332 195)"/>
</clipPath>
</defs>
</svg>
